<svg xmlns="http://www.w3.org/2000/svg" xmlns:xlink="http://www.w3.org/1999/xlink" width="500" zoomAndPan="magnify" viewBox="0 0 375 374.999991" height="500" preserveAspectRatio="xMidYMid meet" version="1.0"><defs><g/><clipPath id="c125c7dec4"><rect x="0" width="252" y="0" height="197"/></clipPath></defs><rect x="-37.5" width="450" fill="#ffffff" y="-37.499999" height="449.999989" fill-opacity="1"/><rect x="-37.5" width="450" fill="#00b6c4" y="-37.499999" height="449.999989" fill-opacity="1"/><g transform="matrix(1, 0, 0, 1, 62, 97)"><g clip-path="url(#c125c7dec4)"><g fill="#ffffff" fill-opacity="1"><g transform="translate(0.518612, 155.700065)"><g><path d="M 3.5625 -62.4375 C 3.5625 -69.6875 4.660156 -76.550781 6.859375 -83.03125 C 9.066406 -89.519531 12.160156 -95.425781 16.140625 -100.75 C 20.128906 -106.070312 24.8125 -110.675781 30.1875 -114.5625 C 35.570312 -118.457031 41.457031 -121.472656 47.84375 -123.609375 C 54.238281 -125.753906 60.945312 -126.828125 67.96875 -126.828125 C 75.164062 -126.828125 82.003906 -125.726562 88.484375 -123.53125 C 94.960938 -121.332031 100.878906 -118.238281 106.234375 -114.25 C 111.585938 -110.269531 116.207031 -105.585938 120.09375 -100.203125 C 123.988281 -94.828125 127.003906 -88.941406 129.140625 -82.546875 C 131.285156 -76.160156 132.359375 -69.457031 132.359375 -62.4375 C 132.359375 -55.363281 131.273438 -48.597656 129.109375 -42.140625 C 126.941406 -35.691406 123.878906 -29.789062 119.921875 -24.4375 C 115.960938 -19.082031 111.304688 -14.425781 105.953125 -10.46875 C 100.609375 -6.519531 94.707031 -3.457031 88.25 -1.28125 C 81.800781 0.882812 75.039062 1.96875 67.96875 1.96875 C 60.894531 1.96875 54.128906 0.882812 47.671875 -1.28125 C 41.222656 -3.457031 35.320312 -6.519531 29.96875 -10.46875 C 24.613281 -14.425781 19.957031 -19.082031 16 -24.4375 C 12.050781 -29.789062 8.988281 -35.691406 6.8125 -42.140625 C 4.644531 -48.597656 3.5625 -55.363281 3.5625 -62.4375 Z M 8.390625 -62.4375 C 8.390625 -57.4375 9.296875 -52.75 11.109375 -48.375 C 12.921875 -44.007812 15.460938 -40.191406 18.734375 -36.921875 C 22.003906 -33.648438 25.820312 -31.078125 30.1875 -29.203125 C 34.5625 -27.335938 39.304688 -26.40625 44.421875 -26.40625 C 49.585938 -26.40625 54.359375 -27.351562 58.734375 -29.25 C 63.109375 -31.15625 66.898438 -33.757812 70.109375 -37.0625 C 73.316406 -40.363281 75.8125 -44.195312 77.59375 -48.5625 C 79.382812 -52.9375 80.28125 -57.5625 80.28125 -62.4375 C 80.28125 -67.726562 79.328125 -72.585938 77.421875 -77.015625 C 75.515625 -81.453125 72.910156 -85.289062 69.609375 -88.53125 C 66.316406 -91.769531 62.5 -94.265625 58.15625 -96.015625 C 53.8125 -97.773438 49.171875 -98.65625 44.234375 -98.65625 C 39.242188 -98.65625 34.578125 -97.742188 30.234375 -95.921875 C 25.890625 -94.109375 22.082031 -91.566406 18.8125 -88.296875 C 15.550781 -85.023438 13 -81.191406 11.15625 -76.796875 C 9.3125 -72.398438 8.390625 -67.613281 8.390625 -62.4375 Z M 8.390625 -62.4375 "/></g></g></g><g fill="#ffffff" fill-opacity="1"><g transform="translate(136.448547, 155.700065)"><g><path d="M 59.40625 1.515625 C 52.445312 1.515625 45.90625 0.609375 39.78125 -1.203125 C 33.65625 -3.015625 28.285156 -5.894531 23.671875 -9.84375 C 19.066406 -13.800781 15.457031 -18.988281 12.84375 -25.40625 C 10.226562 -31.832031 8.921875 -39.628906 8.921875 -48.796875 L 56.109375 -48.796875 C 56.109375 -41.242188 56.65625 -35.023438 57.75 -30.140625 C 58.851562 -25.265625 60.367188 -21.457031 62.296875 -18.71875 C 64.234375 -15.988281 66.492188 -14.070312 69.078125 -12.96875 C 71.671875 -11.875 74.453125 -11.328125 77.421875 -11.328125 C 80.867188 -11.328125 83.988281 -12.113281 86.78125 -13.6875 C 89.582031 -15.269531 91.828125 -17.457031 93.515625 -20.25 C 95.210938 -23.039062 96.0625 -26.28125 96.0625 -29.96875 C 96.0625 -34.96875 94.972656 -39.113281 92.796875 -42.40625 C 90.628906 -45.707031 87.628906 -48.488281 83.796875 -50.75 C 79.960938 -53.007812 75.515625 -55.015625 70.453125 -56.765625 C 65.398438 -58.523438 59.960938 -60.296875 54.140625 -62.078125 C 48.847656 -63.679688 43.894531 -65.523438 39.28125 -67.609375 C 34.675781 -69.691406 30.617188 -72.070312 27.109375 -74.75 C 23.609375 -77.425781 20.875 -80.488281 18.90625 -83.9375 C 16.945312 -87.382812 15.96875 -91.304688 15.96875 -95.703125 C 15.96875 -100.992188 17.035156 -105.585938 19.171875 -109.484375 C 21.316406 -113.378906 24.273438 -116.617188 28.046875 -119.203125 C 31.828125 -121.796875 36.15625 -123.710938 41.03125 -124.953125 C 45.90625 -126.203125 51.078125 -126.828125 56.546875 -126.828125 C 63.148438 -126.828125 69.378906 -125.953125 75.234375 -124.203125 C 81.085938 -122.453125 86.242188 -119.644531 90.703125 -115.78125 C 95.171875 -111.914062 98.679688 -106.769531 101.234375 -100.34375 C 103.796875 -93.925781 105.078125 -86.019531 105.078125 -76.625 L 57.796875 -76.625 C 57.796875 -85.65625 57.007812 -92.921875 55.4375 -98.421875 C 53.863281 -103.921875 51.570312 -107.90625 48.5625 -110.375 C 45.5625 -112.84375 41.921875 -114.078125 37.640625 -114.078125 C 34.671875 -114.078125 31.953125 -113.394531 29.484375 -112.03125 C 27.015625 -110.664062 25.050781 -108.660156 23.59375 -106.015625 C 22.132812 -103.367188 21.40625 -100.140625 21.40625 -96.328125 C 21.40625 -92.171875 22.414062 -88.5625 24.4375 -85.5 C 26.457031 -82.4375 29.144531 -79.800781 32.5 -77.59375 C 35.863281 -75.394531 39.613281 -73.460938 43.75 -71.796875 C 47.882812 -70.140625 52.09375 -68.59375 56.375 -67.15625 C 63.507812 -64.78125 69.851562 -62.550781 75.40625 -60.46875 C 80.96875 -58.394531 85.679688 -56.109375 89.546875 -53.609375 C 93.410156 -51.109375 96.351562 -48.054688 98.375 -44.453125 C 100.40625 -40.859375 101.421875 -36.328125 101.421875 -30.859375 C 101.421875 -24.203125 99.679688 -18.445312 96.203125 -13.59375 C 92.722656 -8.75 87.84375 -5.019531 81.5625 -2.40625 C 75.289062 0.207031 67.90625 1.515625 59.40625 1.515625 Z M 59.40625 1.515625 "/></g></g></g></g></g></svg>